<svg xmlns="http://www.w3.org/2000/svg" width="1360" height="780" viewBox="0 0 1360 780" font-family="ui-sans-serif,-apple-system,'Segoe UI',Helvetica,Arial,sans-serif">
<defs>
<radialGradient id="sky" cx="30%" cy="-10%" r="90%"><stop offset="0%" stop-color="#151b28"/><stop offset="55%" stop-color="#0d1119"/><stop offset="100%" stop-color="#0a0d13"/></radialGradient>
<filter id="glow" x="-60%" y="-60%" width="220%" height="220%"><feDropShadow dx="0" dy="0" stdDeviation="7" flood-opacity="0.55"/></filter>
<marker id="arr-38bdf8" viewBox="0 0 10 10" refX="8.4" refY="5" markerWidth="7.5" markerHeight="7.5" orient="auto-start-reverse"><path d="M 0.8 1.2 L 8.8 5 L 0.8 8.8 L 3 5 Z" fill="#38bdf8"/></marker>
<marker id="arr-a78bfa" viewBox="0 0 10 10" refX="8.4" refY="5" markerWidth="7.5" markerHeight="7.5" orient="auto-start-reverse"><path d="M 0.8 1.2 L 8.8 5 L 0.8 8.8 L 3 5 Z" fill="#a78bfa"/></marker>
<marker id="arr-f97316" viewBox="0 0 10 10" refX="8.4" refY="5" markerWidth="7.5" markerHeight="7.5" orient="auto-start-reverse"><path d="M 0.8 1.2 L 8.8 5 L 0.8 8.8 L 3 5 Z" fill="#f97316"/></marker>
<marker id="arr-fbbf24" viewBox="0 0 10 10" refX="8.4" refY="5" markerWidth="7.5" markerHeight="7.5" orient="auto-start-reverse"><path d="M 0.8 1.2 L 8.8 5 L 0.8 8.8 L 3 5 Z" fill="#fbbf24"/></marker>
<marker id="arr-818cf8" viewBox="0 0 10 10" refX="8.4" refY="5" markerWidth="7.5" markerHeight="7.5" orient="auto-start-reverse"><path d="M 0.8 1.2 L 8.8 5 L 0.8 8.8 L 3 5 Z" fill="#818cf8"/></marker>
</defs>
<rect width="1360" height="780" fill="url(#sky)"/>
<rect x="1" y="1" width="1358" height="778" rx="22" fill="none" stroke="#ffffff14" stroke-width="1.5"/>
<text x="40" y="56" font-size="25" font-weight="700" fill="#f8fafc" letter-spacing="0.2">Memory — how experience becomes a self</text>
<text x="40" y="80" font-size="13" fill="#8b93a7">Working memory → episodic consolidation → beliefs; maintenance loops below, recall back into thought on the right</text>
<rect x="1159.9" y="42" width="160.1" height="22" rx="11" fill="#94a3b814" stroke="#94a3b855" stroke-width="1"/>
<circle cx="1171.9" cy="53" r="3.4" fill="#94a3b8"/>
<text x="1180.9" y="57" font-size="10.5" fill="#cbd5e1">Stem / infrastructure</text>
<rect x="1071.1000000000001" y="42" width="80.8" height="22" rx="11" fill="#f9731614" stroke="#f9731655" stroke-width="1"/>
<circle cx="1083.1000000000001" cy="53" r="3.4" fill="#f97316"/>
<text x="1092.1000000000001" y="57" font-size="10.5" fill="#cbd5e1">LLM seam</text>
<rect x="909.1000000000001" y="42" width="154" height="22" rx="11" fill="#fbbf2414" stroke="#fbbf2455" stroke-width="1"/>
<circle cx="921.1000000000001" cy="53" r="3.4" fill="#fbbf24"/>
<text x="930.1000000000001" y="57" font-size="10.5" fill="#cbd5e1">Executive (System 2)</text>
<rect x="783.7000000000002" y="42" width="117.39999999999999" height="22" rx="11" fill="#818cf814" stroke="#818cf855" stroke-width="1"/>
<circle cx="795.7000000000002" cy="53" r="3.4" fill="#818cf8"/>
<text x="804.7000000000002" y="57" font-size="10.5" fill="#cbd5e1">Meta-cognition</text>
<rect x="707.1000000000001" y="42" width="68.6" height="22" rx="11" fill="#a78bfa14" stroke="#a78bfa55" stroke-width="1"/>
<circle cx="719.1000000000001" cy="53" r="3.4" fill="#a78bfa"/>
<text x="728.1000000000001" y="57" font-size="10.5" fill="#cbd5e1">Memory</text>
<rect x="551.2000000000002" y="42" width="147.89999999999998" height="22" rx="11" fill="#38bdf814" stroke="#38bdf855" stroke-width="1"/>
<circle cx="563.2000000000002" cy="53" r="3.4" fill="#38bdf8"/>
<text x="572.2000000000002" y="57" font-size="10.5" fill="#cbd5e1">Perception &amp; senses</text>
<rect x="44" y="118" width="236" height="232" rx="16" fill="#38bdf807" stroke="#38bdf82e" stroke-width="1" stroke-dasharray="5 4"/>
<text x="60" y="140" font-size="10.5" font-weight="700" letter-spacing="1.6" fill="#38bdf8bb">INTAKE</text>
<rect x="300" y="118" width="216" height="232" rx="16" fill="#a78bfa07" stroke="#a78bfa2e" stroke-width="1" stroke-dasharray="5 4"/>
<text x="316" y="140" font-size="10.5" font-weight="700" letter-spacing="1.6" fill="#a78bfabb">SHORT-TERM</text>
<rect x="556" y="118" width="500" height="292" rx="16" fill="#a78bfa07" stroke="#a78bfa2e" stroke-width="1" stroke-dasharray="5 4"/>
<text x="572" y="140" font-size="10.5" font-weight="700" letter-spacing="1.6" fill="#a78bfabb">CONSOLIDATION · LONG-TERM</text>
<rect x="556" y="438" width="500" height="232" rx="16" fill="#a78bfa07" stroke="#a78bfa2e" stroke-width="1" stroke-dasharray="5 4"/>
<text x="572" y="460" font-size="10.5" font-weight="700" letter-spacing="1.6" fill="#a78bfabb">MAINTENANCE · OFFLINE</text>
<rect x="1076" y="118" width="240" height="292" rx="16" fill="#fbbf2407" stroke="#fbbf242e" stroke-width="1" stroke-dasharray="5 4"/>
<text x="1092" y="140" font-size="10.5" font-weight="700" letter-spacing="1.6" fill="#fbbf24bb">RECALL INTO THOUGHT</text>
<path d="M 234 177 C 272.1535896083186 177, 279.8464103916814 232, 318 232" fill="none" stroke="#38bdf8" stroke-width="1.6" stroke-opacity="0.85" marker-end="url(#arr-38bdf8)"/>
<path d="M 234 289 C 272.5751474397701 289, 279.4248525602299 232, 318 232" fill="none" stroke="#38bdf8" stroke-width="1.6" stroke-opacity="0.85" marker-end="url(#arr-38bdf8)"/>
<rect x="244.1" y="250.5" width="63.8" height="19" rx="9.5" fill="#0b0e14" fill-opacity="0.92" stroke="#38bdf844" stroke-width="0.8"/>
<text x="276" y="264" font-size="10" fill="#cbd5e1" text-anchor="middle">WM items</text>
<path d="M 498 232 C 534.2676108945709 232, 539.7323891054291 177, 576 177" fill="none" stroke="#a78bfa" stroke-width="1.6" stroke-opacity="0.85" marker-end="url(#arr-a78bfa)"/>
<rect x="498.6" y="194.5" width="76.8" height="19" rx="9.5" fill="#0b0e14" fill-opacity="0.92" stroke="#a78bfa44" stroke-width="0.8"/>
<text x="537" y="208" font-size="10" fill="#cbd5e1" text-anchor="middle">salient items</text>
<path d="M 674 204 C 674 238, 674 246, 674 280" fill="none" stroke="#f97316" stroke-width="1.6" stroke-opacity="0.85" stroke-dasharray="5 4" marker-end="url(#arr-f97316)"/>
<rect x="650.2" y="232" width="47.6" height="19" rx="9.5" fill="#0b0e14" fill-opacity="0.92" stroke="#f9731644" stroke-width="0.8"/>
<text x="674" y="245.5" font-size="10" fill="#cbd5e1" text-anchor="middle">embed</text>
<path d="M 772 307 C 806 307, 804 307, 838 307" fill="none" stroke="#f97316" stroke-width="1.6" stroke-opacity="0.85" marker-end="url(#arr-f97316)"/>
<path d="M 772 177 C 806 177, 804 177, 838 177" fill="none" stroke="#a78bfa" stroke-width="1.6" stroke-opacity="0.85" marker-end="url(#arr-a78bfa)"/>
<path d="M 576 497 C 546 497, 546 177, 576 177" fill="none" stroke="#a78bfa" stroke-width="1.6" stroke-opacity="0.85" stroke-dasharray="5 4" marker-end="url(#arr-a78bfa)"/>
<rect x="531.5" y="327" width="44" height="19" rx="9.5" fill="#0b0e14" fill-opacity="0.92" stroke="#a78bfa44" stroke-width="0.8"/>
<text x="553.5" y="340.5" font-size="10" fill="#cbd5e1" text-anchor="middle">prune</text>
<path d="M 576 607 C 520 607, 520 177, 576 177" fill="none" stroke="#a78bfa" stroke-width="1.6" stroke-opacity="0.85" stroke-dasharray="5 4" marker-end="url(#arr-a78bfa)"/>
<rect x="510.91999999999996" y="349.85749999999996" width="47" height="19" rx="9.5" fill="#0b0e14" fill-opacity="0.92" stroke="#a78bfa44" stroke-width="0.8"/>
<text x="534.42" y="363.35749999999996" font-size="10" fill="#cbd5e1" text-anchor="middle">replay</text>
<path d="M 838 497 C 812 497, 812 177, 838 177" fill="none" stroke="#a78bfa" stroke-width="1.6" stroke-opacity="0.85" stroke-dasharray="5 4" marker-end="url(#arr-a78bfa)"/>
<rect x="787.9" y="327" width="61.2" height="19" rx="9.5" fill="#0b0e14" fill-opacity="0.92" stroke="#a78bfa44" stroke-width="0.8"/>
<text x="818.5" y="340.5" font-size="10" fill="#cbd5e1" text-anchor="middle">reinforce</text>
<path d="M 1028 307 C 1083.4018627845671 307, 1038.5981372154329 177, 1094 177" fill="none" stroke="#a78bfa" stroke-width="1.6" stroke-opacity="0.85" stroke-dasharray="5 4" marker-end="url(#arr-a78bfa)"/>
<rect x="1016.9" y="232" width="88.20000000000002" height="19" rx="9.5" fill="#0b0e14" fill-opacity="0.92" stroke="#a78bfa44" stroke-width="0.8"/>
<text x="1061" y="245.5" font-size="10" fill="#cbd5e1" text-anchor="middle">semanticQuery</text>
<path d="M 1028 177 C 1062 177, 1060 177, 1094 177" fill="none" stroke="#a78bfa" stroke-width="1.6" stroke-opacity="0.85" marker-end="url(#arr-a78bfa)"/>
<path d="M 1196 204 C 1196 238, 1196 246, 1196 280" fill="none" stroke="#fbbf24" stroke-width="1.6" stroke-opacity="0.85" marker-end="url(#arr-fbbf24)"/>
<path d="M 1028 177 C 1178 177, 1196 410, 1196 560" fill="none" stroke="#a78bfa" stroke-width="1.6" stroke-opacity="0.85" stroke-dasharray="5 4" marker-end="url(#arr-a78bfa)"/>
<path d="M 1028 607 C 1062 607, 1060 587, 1094 587" fill="none" stroke="#818cf8" stroke-width="1.6" stroke-opacity="0.85" marker-end="url(#arr-818cf8)"/>
<g>
<rect x="62" y="150" width="172" height="54" rx="12" fill="#10141d" stroke="#38bdf899" stroke-width="1.4"/>
<rect x="62" y="150" width="172" height="54" rx="12" fill="#38bdf812"/>
<rect x="63.2" y="159" width="3.2" height="36" rx="1.6" fill="#38bdf8"/>
<text x="148" y="174" font-size="13" font-weight="600" fill="#f1f5f9" text-anchor="middle">Percepts</text>
<text x="148" y="190.5" font-size="10" fill="#8b93a7" text-anchor="middle">senses.*.percept</text>
</g>
<g>
<rect x="62" y="262" width="172" height="54" rx="12" fill="#10141d" stroke="#38bdf899" stroke-width="1.4"/>
<rect x="62" y="262" width="172" height="54" rx="12" fill="#38bdf812"/>
<rect x="63.2" y="271" width="3.2" height="36" rx="1.6" fill="#38bdf8"/>
<text x="148" y="286" font-size="13" font-weight="600" fill="#f1f5f9" text-anchor="middle">Conversation turns</text>
<text x="148" y="302.5" font-size="10" fill="#8b93a7" text-anchor="middle">audition exchanges</text>
</g>
<g>
<rect x="318" y="205" width="180" height="54" rx="12" fill="#10141d" stroke="#a78bfa99" stroke-width="1.4"/>
<rect x="318" y="205" width="180" height="54" rx="12" fill="#a78bfa12"/>
<rect x="319.2" y="214" width="3.2" height="36" rx="1.6" fill="#a78bfa"/>
<text x="408" y="229" font-size="13" font-weight="600" fill="#f1f5f9" text-anchor="middle">WorkingMemory</text>
<text x="408" y="245.5" font-size="10" fill="#8b93a7" text-anchor="middle">activation · decay</text>
</g>
<g>
<rect x="576" y="150" width="196" height="54" rx="12" fill="#10141d" stroke="#a78bfa99" stroke-width="1.4"/>
<rect x="576" y="150" width="196" height="54" rx="12" fill="#a78bfa12"/>
<rect x="577.2" y="159" width="3.2" height="36" rx="1.6" fill="#a78bfa"/>
<text x="674" y="174" font-size="13" font-weight="600" fill="#f1f5f9" text-anchor="middle">EpisodicConsolidator</text>
<text x="674" y="190.5" font-size="10" fill="#8b93a7" text-anchor="middle">episodes · dedup</text>
</g>
<g filter="url(#glow)" color="#f97316">
<rect x="576" y="280" width="196" height="54" rx="12" fill="#10141d" stroke="#f9731699" stroke-width="1.4"/>
<rect x="576" y="280" width="196" height="54" rx="12" fill="#f9731612"/>
<rect x="577.2" y="289" width="3.2" height="36" rx="1.6" fill="#f97316"/>
<text x="674" y="304" font-size="13" font-weight="600" fill="#f1f5f9" text-anchor="middle">Embedder</text>
<text x="674" y="320.5" font-size="10" fill="#8b93a7" text-anchor="middle">vector encode (live only)</text>
</g>
<g>
<rect x="838" y="280" width="190" height="54" rx="12" fill="#10141d" stroke="#a78bfa99" stroke-width="1.4"/>
<rect x="838" y="280" width="190" height="54" rx="12" fill="#a78bfa12"/>
<rect x="839.2" y="289" width="3.2" height="36" rx="1.6" fill="#a78bfa"/>
<text x="933" y="304" font-size="13" font-weight="600" fill="#f1f5f9" text-anchor="middle">Vector memory</text>
<text x="933" y="320.5" font-size="10" fill="#8b93a7" text-anchor="middle">semantic index</text>
</g>
<g>
<rect x="838" y="150" width="190" height="54" rx="12" fill="#10141d" stroke="#a78bfa99" stroke-width="1.4"/>
<rect x="838" y="150" width="190" height="54" rx="12" fill="#a78bfa12"/>
<rect x="839.2" y="159" width="3.2" height="36" rx="1.6" fill="#a78bfa"/>
<text x="933" y="174" font-size="13" font-weight="600" fill="#f1f5f9" text-anchor="middle">SemanticIntegrator</text>
<text x="933" y="190.5" font-size="10" fill="#8b93a7" text-anchor="middle">beliefs · confidence</text>
</g>
<g>
<rect x="576" y="470" width="196" height="54" rx="12" fill="#10141d" stroke="#a78bfa99" stroke-width="1.4"/>
<rect x="576" y="470" width="196" height="54" rx="12" fill="#a78bfa12"/>
<rect x="577.2" y="479" width="3.2" height="36" rx="1.6" fill="#a78bfa"/>
<text x="674" y="494" font-size="13" font-weight="600" fill="#f1f5f9" text-anchor="middle">ForgettingCurve</text>
<text x="674" y="510.5" font-size="10" fill="#8b93a7" text-anchor="middle">decay · prune</text>
</g>
<g>
<rect x="576" y="580" width="196" height="54" rx="12" fill="#10141d" stroke="#a78bfa99" stroke-width="1.4"/>
<rect x="576" y="580" width="196" height="54" rx="12" fill="#a78bfa12"/>
<rect x="577.2" y="589" width="3.2" height="36" rx="1.6" fill="#a78bfa"/>
<text x="674" y="604" font-size="13" font-weight="600" fill="#f1f5f9" text-anchor="middle">DreamSimulator</text>
<text x="674" y="620.5" font-size="10" fill="#8b93a7" text-anchor="middle">offline replay</text>
</g>
<g>
<rect x="838" y="470" width="190" height="54" rx="12" fill="#10141d" stroke="#a78bfa99" stroke-width="1.4"/>
<rect x="838" y="470" width="190" height="54" rx="12" fill="#a78bfa12"/>
<rect x="839.2" y="479" width="3.2" height="36" rx="1.6" fill="#a78bfa"/>
<text x="933" y="494" font-size="13" font-weight="600" fill="#f1f5f9" text-anchor="middle">SpacedRepetition</text>
<text x="933" y="510.5" font-size="10" fill="#8b93a7" text-anchor="middle">reinforce on schedule</text>
</g>
<g>
<rect x="838" y="580" width="190" height="54" rx="12" fill="#10141d" stroke="#818cf899" stroke-width="1.4"/>
<rect x="838" y="580" width="190" height="54" rx="12" fill="#818cf812"/>
<rect x="839.2" y="589" width="3.2" height="36" rx="1.6" fill="#818cf8"/>
<text x="933" y="604" font-size="13" font-weight="600" fill="#f1f5f9" text-anchor="middle">Autobiographical</text>
<text x="933" y="620.5" font-size="10" fill="#8b93a7" text-anchor="middle">narrator — the life story</text>
</g>
<g>
<rect x="1094" y="150" width="204" height="54" rx="12" fill="#10141d" stroke="#fbbf2499" stroke-width="1.4"/>
<rect x="1094" y="150" width="204" height="54" rx="12" fill="#fbbf2412"/>
<rect x="1095.2" y="159" width="3.2" height="36" rx="1.6" fill="#fbbf24"/>
<text x="1196" y="174" font-size="13" font-weight="600" fill="#f1f5f9" text-anchor="middle">buildExecutiveContext</text>
<text x="1196" y="190.5" font-size="10" fill="#8b93a7" text-anchor="middle">## Relevant Memories</text>
</g>
<g filter="url(#glow)" color="#f97316">
<rect x="1094" y="280" width="204" height="54" rx="12" fill="#10141d" stroke="#f9731699" stroke-width="1.4"/>
<rect x="1094" y="280" width="204" height="54" rx="12" fill="#f9731612"/>
<rect x="1095.2" y="289" width="3.2" height="36" rx="1.6" fill="#f97316"/>
<text x="1196" y="304" font-size="13" font-weight="600" fill="#f1f5f9" text-anchor="middle">Executive &amp; facet prompts</text>
<text x="1196" y="320.5" font-size="10" fill="#8b93a7" text-anchor="middle">master · conversation</text>
</g>
<g>
<rect x="1094" y="560" width="204" height="54" rx="12" fill="#10141d" stroke="#94a3b899" stroke-width="1.4"/>
<rect x="1094" y="560" width="204" height="54" rx="12" fill="#94a3b812"/>
<rect x="1095.2" y="569" width="3.2" height="36" rx="1.6" fill="#94a3b8"/>
<text x="1196" y="584" font-size="13" font-weight="600" fill="#f1f5f9" text-anchor="middle">PMA distill</text>
<text x="1196" y="600.5" font-size="10" fill="#8b93a7" text-anchor="middle">beliefs · digests · narrative</text>
</g>
<text x="40" y="758" font-size="10.5" fill="#5b6372">@mindot/will · memory-cycle</text>
<text x="1320" y="758" font-size="10.5" fill="#454c59" text-anchor="end">regenerate: bun docs/graphs/generate.ts</text>
</svg>