<svg xmlns="http://www.w3.org/2000/svg" width="1360" height="740" viewBox="0 0 1360 740" font-family="ui-sans-serif,-apple-system,'Segoe UI',Helvetica,Arial,sans-serif">
<defs>
<radialGradient id="sky" cx="30%" cy="-10%" r="90%"><stop offset="0%" stop-color="#151b28"/><stop offset="55%" stop-color="#0d1119"/><stop offset="100%" stop-color="#0a0d13"/></radialGradient>
<filter id="glow" x="-60%" y="-60%" width="220%" height="220%"><feDropShadow dx="0" dy="0" stdDeviation="7" flood-opacity="0.55"/></filter>
<marker id="arr-4ade80" viewBox="0 0 10 10" refX="8.4" refY="5" markerWidth="7.5" markerHeight="7.5" orient="auto-start-reverse"><path d="M 0.8 1.2 L 8.8 5 L 0.8 8.8 L 3 5 Z" fill="#4ade80"/></marker>
<marker id="arr-818cf8" viewBox="0 0 10 10" refX="8.4" refY="5" markerWidth="7.5" markerHeight="7.5" orient="auto-start-reverse"><path d="M 0.8 1.2 L 8.8 5 L 0.8 8.8 L 3 5 Z" fill="#818cf8"/></marker>
<marker id="arr-a78bfa" viewBox="0 0 10 10" refX="8.4" refY="5" markerWidth="7.5" markerHeight="7.5" orient="auto-start-reverse"><path d="M 0.8 1.2 L 8.8 5 L 0.8 8.8 L 3 5 Z" fill="#a78bfa"/></marker>
<marker id="arr-2dd4bf" viewBox="0 0 10 10" refX="8.4" refY="5" markerWidth="7.5" markerHeight="7.5" orient="auto-start-reverse"><path d="M 0.8 1.2 L 8.8 5 L 0.8 8.8 L 3 5 Z" fill="#2dd4bf"/></marker>
<marker id="arr-fbbf24" viewBox="0 0 10 10" refX="8.4" refY="5" markerWidth="7.5" markerHeight="7.5" orient="auto-start-reverse"><path d="M 0.8 1.2 L 8.8 5 L 0.8 8.8 L 3 5 Z" fill="#fbbf24"/></marker>
<marker id="arr-f97316" viewBox="0 0 10 10" refX="8.4" refY="5" markerWidth="7.5" markerHeight="7.5" orient="auto-start-reverse"><path d="M 0.8 1.2 L 8.8 5 L 0.8 8.8 L 3 5 Z" fill="#f97316"/></marker>
</defs>
<rect width="1360" height="740" fill="url(#sky)"/>
<rect x="1" y="1" width="1358" height="738" rx="22" fill="none" stroke="#ffffff14" stroke-width="1.5"/>
<text x="40" y="56" font-size="25" font-weight="700" fill="#f8fafc" letter-spacing="0.2">Two channels of character — Channel A &amp; Channel B</text>
<text x="40" y="80" font-size="13" fill="#8b93a7">One prior, developed from lived behavior. Channel A tunes the machinery continuously (subconscious); Channel B surfaces coarse trait bands into the prompt (self-knowledge) — and behavior feeds the loop again</text>
<rect x="1196.5" y="42" width="123.5" height="22" rx="11" fill="#4ade8014" stroke="#4ade8055" stroke-width="1"/>
<circle cx="1208.5" cy="53" r="3.4" fill="#4ade80"/>
<text x="1217.5" y="57" font-size="10.5" fill="#cbd5e1">Agency (action)</text>
<rect x="1107.7" y="42" width="80.8" height="22" rx="11" fill="#f9731614" stroke="#f9731655" stroke-width="1"/>
<circle cx="1119.7" cy="53" r="3.4" fill="#f97316"/>
<text x="1128.7" y="57" font-size="10.5" fill="#cbd5e1">LLM seam</text>
<rect x="945.7" y="42" width="154" height="22" rx="11" fill="#fbbf2414" stroke="#fbbf2455" stroke-width="1"/>
<circle cx="957.7" cy="53" r="3.4" fill="#fbbf24"/>
<text x="966.7" y="57" font-size="10.5" fill="#cbd5e1">Executive (System 2)</text>
<rect x="802" y="42" width="135.7" height="22" rx="11" fill="#2dd4bf14" stroke="#2dd4bf55" stroke-width="1"/>
<circle cx="814" cy="53" r="3.4" fill="#2dd4bf"/>
<text x="823" y="57" font-size="10.5" fill="#cbd5e1">Regulatory (body)</text>
<rect x="676.6" y="42" width="117.39999999999999" height="22" rx="11" fill="#818cf814" stroke="#818cf855" stroke-width="1"/>
<circle cx="688.6" cy="53" r="3.4" fill="#818cf8"/>
<text x="697.6" y="57" font-size="10.5" fill="#cbd5e1">Meta-cognition</text>
<rect x="44" y="118" width="250" height="510" rx="16" fill="#818cf807" stroke="#818cf82e" stroke-width="1" stroke-dasharray="5 4"/>
<text x="60" y="140" font-size="10.5" font-weight="700" letter-spacing="1.6" fill="#818cf8bb">LIVED EVIDENCE</text>
<rect x="314" y="118" width="246" height="410" rx="16" fill="#818cf807" stroke="#818cf82e" stroke-width="1" stroke-dasharray="5 4"/>
<text x="330" y="140" font-size="10.5" font-weight="700" letter-spacing="1.6" fill="#818cf8bb">THE WRITE-BACK</text>
<rect x="584" y="118" width="506" height="250" rx="16" fill="#2dd4bf07" stroke="#2dd4bf2e" stroke-width="1" stroke-dasharray="5 4"/>
<text x="600" y="140" font-size="10.5" font-weight="700" letter-spacing="1.6" fill="#2dd4bfbb">CHANNEL A — CONTINUOUS · SUBCONSCIOUS</text>
<rect x="584" y="400" width="506" height="250" rx="16" fill="#f9731607" stroke="#f973162e" stroke-width="1" stroke-dasharray="5 4"/>
<text x="600" y="422" font-size="10.5" font-weight="700" letter-spacing="1.6" fill="#f97316bb">CHANNEL B — BANDED · SELF-KNOWN</text>
<rect x="1104" y="118" width="222" height="470" rx="16" fill="#94a3b807" stroke="#94a3b82e" stroke-width="1" stroke-dasharray="5 4"/>
<text x="1120" y="140" font-size="10.5" font-weight="700" letter-spacing="1.6" fill="#94a3b8bb">DUAL PROCESS</text>
<path d="M 66 547 C 50 547, 50 217, 66 217" fill="none" stroke="#4ade80" stroke-width="1.6" stroke-opacity="0.85" stroke-dasharray="5 4" marker-end="url(#arr-4ade80)"/>
<path d="M 169 520 C 169 468.32, 169 435.68, 169 384" fill="none" stroke="#4ade80" stroke-width="1.6" stroke-opacity="0.85" stroke-dasharray="5 4" marker-end="url(#arr-4ade80)"/>
<path d="M 272 217 C 306.5444872591851 217, 295.4555127408149 287, 330 287" fill="none" stroke="#818cf8" stroke-width="1.6" stroke-opacity="0.85" marker-end="url(#arr-818cf8)"/>
<path d="M 272 357 C 306.5444872591851 357, 295.4555127408149 287, 330 287" fill="none" stroke="#818cf8" stroke-width="1.6" stroke-opacity="0.85" marker-end="url(#arr-818cf8)"/>
<path d="M 437 314 C 437 358.08, 437 385.92, 437 430" fill="none" stroke="#818cf8" stroke-width="1.6" stroke-opacity="0.85" marker-end="url(#arr-818cf8)"/>
<rect x="389.8" y="362" width="94.39999999999999" height="19" rx="9.5" fill="#0b0e14" fill-opacity="0.92" stroke="#818cf844" stroke-width="0.8"/>
<text x="437" y="375.5" font-size="10" fill="#cbd5e1" text-anchor="middle">bounded deltas</text>
<path d="M 544 457 C 630.2658588318693 457, 513.7341411681307 237, 600 237" fill="none" stroke="#a78bfa" stroke-width="1.6" stroke-opacity="0.85" marker-end="url(#arr-a78bfa)"/>
<rect x="561.2" y="337" width="21.6" height="19" rx="9.5" fill="#0b0e14" fill-opacity="0.92" stroke="#a78bfa44" stroke-width="0.8"/>
<text x="572" y="350.5" font-size="10" fill="#cbd5e1" text-anchor="middle">⊕</text>
<path d="M 272 217 C 392 217, 512.280776991961 343.6286409999703, 560 380 C 607.719223008039 416.3713590000297, 563.6131397342392 467, 600 467" fill="none" stroke="#818cf8" stroke-width="1.6" stroke-opacity="0.85" stroke-dasharray="5 4" marker-end="url(#arr-818cf8)"/>
<rect x="518.4" y="370" width="83.19999999999999" height="19" rx="9.5" fill="#0b0e14" fill-opacity="0.92" stroke="#818cf844" stroke-width="0.8"/>
<text x="560" y="383.5" font-size="10" fill="#cbd5e1" text-anchor="middle">trait values</text>
<path d="M 800 237 C 835.034268937713 237, 834.965731062287 177, 870 177" fill="none" stroke="#2dd4bf" stroke-width="1.6" stroke-opacity="0.85" marker-end="url(#arr-2dd4bf)"/>
<path d="M 800 237 C 838.1592662403249 237, 831.8407337596751 309, 870 309" fill="none" stroke="#2dd4bf" stroke-width="1.6" stroke-opacity="0.85" marker-end="url(#arr-2dd4bf)"/>
<path d="M 1070 177 C 1104 177, 1086 237, 1120 237" fill="none" stroke="#2dd4bf" stroke-width="1.6" stroke-opacity="0.85" marker-end="url(#arr-2dd4bf)"/>
<path d="M 1070 309 C 1155.1963050841996 309, 1215 394.8036949158005, 1215 480" fill="none" stroke="#fbbf24" stroke-width="1.6" stroke-opacity="0.85" stroke-dasharray="5 4" marker-end="url(#arr-fbbf24)"/>
<rect x="1144.0486144065749" y="352.5513855934252" width="60.8" height="19" rx="9.5" fill="#0b0e14" fill-opacity="0.92" stroke="#fbbf2444" stroke-width="0.8"/>
<text x="1174.448614406575" y="366.0513855934252" font-size="10" fill="#cbd5e1" text-anchor="middle">recruits</text>
<path d="M 800 467 C 834 467, 836 467, 870 467" fill="none" stroke="#f97316" stroke-width="1.6" stroke-opacity="0.85" marker-end="url(#arr-f97316)"/>
<path d="M 1070 467 C 1104 467, 1086 507, 1120 507" fill="none" stroke="#f97316" stroke-width="1.6" stroke-opacity="0.85" marker-end="url(#arr-f97316)"/>
<path d="M 800 587 C 920 587, 1215 654, 1215 534" fill="none" stroke="#f97316" stroke-width="1.6" stroke-opacity="0.85" stroke-dasharray="5 4" marker-end="url(#arr-f97316)"/>
<path d="M 1215 534 C 1215 654, 759.9561770243438 697.7072207638874, 700 700 C 640.0438229756562 702.2927792361126, 169 694, 169 574" fill="none" stroke="#f97316" stroke-width="1.6" stroke-opacity="0.85" stroke-dasharray="5 4" marker-end="url(#arr-f97316)"/>
<rect x="538" y="690" width="324" height="19" rx="9.5" fill="#0b0e14" fill-opacity="0.92" stroke="#f9731644" stroke-width="0.8"/>
<text x="700" y="703.5" font-size="10" fill="#cbd5e1" text-anchor="middle">behavior — from either system — demonstrates the traits</text>
<g>
<rect x="66" y="190" width="206" height="54" rx="12" fill="#10141d" stroke="#818cf899" stroke-width="1.4"/>
<rect x="66" y="190" width="206" height="54" rx="12" fill="#818cf812"/>
<rect x="67.2" y="199" width="3.2" height="36" rx="1.6" fill="#818cf8"/>
<text x="169" y="214" font-size="13" font-weight="600" fill="#f1f5f9" text-anchor="middle">Self-model traits</text>
<text x="169" y="230.5" font-size="10" fill="#8b93a7" text-anchor="middle">formed from own behavior</text>
</g>
<g>
<rect x="66" y="330" width="206" height="54" rx="12" fill="#10141d" stroke="#818cf899" stroke-width="1.4"/>
<rect x="66" y="330" width="206" height="54" rx="12" fill="#818cf812"/>
<rect x="67.2" y="339" width="3.2" height="36" rx="1.6" fill="#818cf8"/>
<text x="169" y="354" font-size="13" font-weight="600" fill="#f1f5f9" text-anchor="middle">Meta signals</text>
<text x="169" y="370.5" font-size="10" fill="#8b93a7" text-anchor="middle">bias · calibration · insight</text>
</g>
<g>
<rect x="66" y="520" width="206" height="54" rx="12" fill="#10141d" stroke="#4ade8099" stroke-width="1.4"/>
<rect x="66" y="520" width="206" height="54" rx="12" fill="#4ade8012"/>
<rect x="67.2" y="529" width="3.2" height="36" rx="1.6" fill="#4ade80"/>
<text x="169" y="544" font-size="13" font-weight="600" fill="#f1f5f9" text-anchor="middle">Demonstrated behavior</text>
<text x="169" y="560.5" font-size="10" fill="#8b93a7" text-anchor="middle">what the Will actually does</text>
</g>
<g filter="url(#glow)" color="#818cf8">
<rect x="330" y="260" width="214" height="54" rx="12" fill="#10141d" stroke="#818cf899" stroke-width="1.4"/>
<rect x="330" y="260" width="214" height="54" rx="12" fill="#818cf812"/>
<rect x="331.2" y="269" width="3.2" height="36" rx="1.6" fill="#818cf8"/>
<text x="437" y="284" font-size="13" font-weight="600" fill="#f1f5f9" text-anchor="middle">PersonaConsolidator</text>
<text x="437" y="300.5" font-size="10" fill="#8b93a7" text-anchor="middle">bounded · decaying — base never mutates</text>
</g>
<g>
<rect x="330" y="430" width="214" height="54" rx="12" fill="#10141d" stroke="#a78bfa99" stroke-width="1.4"/>
<rect x="330" y="430" width="214" height="54" rx="12" fill="#a78bfa12"/>
<rect x="331.2" y="439" width="3.2" height="36" rx="1.6" fill="#a78bfa"/>
<text x="437" y="454" font-size="13" font-weight="600" fill="#f1f5f9" text-anchor="middle">persona-prior entity</text>
<text x="437" y="470.5" font-size="10" fill="#8b93a7" text-anchor="middle">durable — travels in the PMA</text>
</g>
<g>
<rect x="600" y="210" width="200" height="54" rx="12" fill="#10141d" stroke="#2dd4bf99" stroke-width="1.4"/>
<rect x="600" y="210" width="200" height="54" rx="12" fill="#2dd4bf12"/>
<rect x="601.2" y="219" width="3.2" height="36" rx="1.6" fill="#2dd4bf"/>
<text x="700" y="234" font-size="13" font-weight="600" fill="#f1f5f9" text-anchor="middle">base ⊕ prior</text>
<text x="700" y="250.5" font-size="10" fill="#8b93a7" text-anchor="middle">read LIVE, every tick</text>
</g>
<g>
<rect x="870" y="150" width="200" height="54" rx="12" fill="#10141d" stroke="#2dd4bf99" stroke-width="1.4"/>
<rect x="870" y="150" width="200" height="54" rx="12" fill="#2dd4bf12"/>
<rect x="871.2" y="159" width="3.2" height="36" rx="1.6" fill="#2dd4bf"/>
<text x="970" y="174" font-size="13" font-weight="600" fill="#f1f5f9" text-anchor="middle">Engine dispositions</text>
<text x="970" y="190.5" font-size="10" fill="#8b93a7" text-anchor="middle">threat · curiosity · plan bias…</text>
</g>
<g>
<rect x="870" y="282" width="200" height="54" rx="12" fill="#10141d" stroke="#fbbf2499" stroke-width="1.4"/>
<rect x="870" y="282" width="200" height="54" rx="12" fill="#fbbf2412"/>
<rect x="871.2" y="291" width="3.2" height="36" rx="1.6" fill="#fbbf24"/>
<text x="970" y="306" font-size="13" font-weight="600" fill="#f1f5f9" text-anchor="middle">Effort gate</text>
<text x="970" y="322.5" font-size="10" fill="#8b93a7" text-anchor="middle">when to recruit the deliberate self</text>
</g>
<g>
<rect x="600" y="440" width="200" height="54" rx="12" fill="#10141d" stroke="#f9731699" stroke-width="1.4"/>
<rect x="600" y="440" width="200" height="54" rx="12" fill="#f9731612"/>
<rect x="601.2" y="449" width="3.2" height="36" rx="1.6" fill="#f97316"/>
<text x="700" y="464" font-size="13" font-weight="600" fill="#f1f5f9" text-anchor="middle">Trait bands</text>
<text x="700" y="480.5" font-size="10" fill="#8b93a7" text-anchor="middle">coarse on purpose — cache-stable</text>
</g>
<g>
<rect x="870" y="440" width="200" height="54" rx="12" fill="#10141d" stroke="#f9731699" stroke-width="1.4"/>
<rect x="870" y="440" width="200" height="54" rx="12" fill="#f9731612"/>
<rect x="871.2" y="449" width="3.2" height="36" rx="1.6" fill="#f97316"/>
<text x="970" y="464" font-size="13" font-weight="600" fill="#f1f5f9" text-anchor="middle">Prompt surfacing</text>
<text x="970" y="480.5" font-size="10" fill="#8b93a7" text-anchor="middle">“markedly conscientious”</text>
</g>
<g>
<rect x="600" y="560" width="200" height="54" rx="12" fill="#10141d" stroke="#f9731699" stroke-width="1.4"/>
<rect x="600" y="560" width="200" height="54" rx="12" fill="#f9731612"/>
<rect x="601.2" y="569" width="3.2" height="36" rx="1.6" fill="#f97316"/>
<text x="700" y="584" font-size="13" font-weight="600" fill="#f1f5f9" text-anchor="middle">Context naming</text>
<text x="700" y="600.5" font-size="10" fill="#8b93a7" text-anchor="middle">plan links named to the facet</text>
</g>
<g>
<rect x="1120" y="210" width="190" height="54" rx="12" fill="#10141d" stroke="#4ade8099" stroke-width="1.4"/>
<rect x="1120" y="210" width="190" height="54" rx="12" fill="#4ade8012"/>
<rect x="1121.2" y="219" width="3.2" height="36" rx="1.6" fill="#4ade80"/>
<text x="1215" y="234" font-size="13" font-weight="600" fill="#f1f5f9" text-anchor="middle">System 1</text>
<text x="1215" y="250.5" font-size="10" fill="#8b93a7" text-anchor="middle">the deterministic machinery</text>
</g>
<g>
<rect x="1120" y="480" width="190" height="54" rx="12" fill="#10141d" stroke="#f9731699" stroke-width="1.4"/>
<rect x="1120" y="480" width="190" height="54" rx="12" fill="#f9731612"/>
<rect x="1121.2" y="489" width="3.2" height="36" rx="1.6" fill="#f97316"/>
<text x="1215" y="504" font-size="13" font-weight="600" fill="#f1f5f9" text-anchor="middle">System 2</text>
<text x="1215" y="520.5" font-size="10" fill="#8b93a7" text-anchor="middle">the deliberate self — one call</text>
</g>
<text x="40" y="718" font-size="10.5" fill="#5b6372">@mindot/will · persona-channels</text>
<text x="1320" y="718" font-size="10.5" fill="#454c59" text-anchor="end">regenerate: bun docs/graphs/generate.ts</text>
</svg>